<svg height="512" viewBox="0 0 64 64" width="512" xmlns="http://www.w3.org/2000/svg"><g id="_03-christmas_tree" data-name="03-christmas tree"><path d="m35.779 9.721a1.078 1.078 0 0 1 -1.71 1.06l-2.069-1.52-2.069 1.52a1.078 1.078 0 0 1 -1.71-1.06l.24-1.17.29-1.41-1.409-1.381a1 1 0 0 1 .679-1.76h1.99l1.019-2.4a1.083 1.083 0 0 1 1.94 0l1.019 2.4h1.99a1 1 0 0 1 .679 1.76l-1.409 1.381.28 1.38.01.01z" fill="#ffd45d"/><path d="m39 55.39v5.61a2 2 0 0 1 -2 2h-10a2 2 0 0 1 -2-2v-5.61a7.338 7.338 0 0 0 1.34 1.56 8.577 8.577 0 0 0 5.66 2.05 8.238 8.238 0 0 0 7-3.61z" fill="#915041"/><path d="m25 41-1 11a7.182 7.182 0 0 1 -7.08 6h-.83a5.088 5.088 0 0 1 -3.83-8.44l3.88-5.11c.07.07.13.14.2.21a4.509 4.509 0 0 0 3.22 1.34h.15a4.562 4.562 0 0 0 4.33-3.12l.54-1.62a.442.442 0 0 1 .43-.31z" fill="#004a2d"/><path d="m39 55.39a8.238 8.238 0 0 1 -7 3.61 8.577 8.577 0 0 1 -5.66-2.05 7.338 7.338 0 0 1 -1.34-1.56 6.26 6.26 0 0 1 -1-3.39l1-11 .01-.05a.432.432 0 0 1 .41.31 6.936 6.936 0 0 0 13.16 0 .432.432 0 0 1 .41-.31l.01.05 1 11a6.26 6.26 0 0 1 -1 3.39z" fill="#007145"/><path d="m39.96 42.88a4.562 4.562 0 0 0 4.33 3.12h.15a4.537 4.537 0 0 0 3.42-1.55l3.88 5.11a5.088 5.088 0 0 1 -3.83 8.44h-.83a7.173 7.173 0 0 1 -7.08-6l-1-11-.01-.05h.01a.443.443 0 0 1 .42.31z" fill="#008f57"/><path d="m26.99 28.05-1.98 12.9a.442.442 0 0 0 -.43.31l-.54 1.62a4.562 4.562 0 0 1 -4.33 3.12h-.15a4.509 4.509 0 0 1 -3.22-1.34c-.07-.07-.13-.14-.2-.21a4.51 4.51 0 0 1 -1.14-3.01 4.618 4.618 0 0 1 .82-2.62l5.12-7.3a3.749 3.749 0 0 0 1.85.48 3.8 3.8 0 0 0 3.74-3.17l.04-.27a.624.624 0 0 1 .42-.51z" fill="#00613b"/><path d="m28.05 29.15a4.172 4.172 0 0 0 3.95 2.85 4.128 4.128 0 0 0 2.43-.79 4.223 4.223 0 0 0 1.52-2.06l.23-.69a.639.639 0 0 1 .83-.41l1.98 12.9a.432.432 0 0 0 -.41.31 6.936 6.936 0 0 1 -13.16 0 .432.432 0 0 0 -.41-.31l1.98-12.9a.639.639 0 0 1 .83.41z" fill="#008f57"/><path d="m47.86 44.45a4.537 4.537 0 0 1 -3.42 1.55h-.15a4.562 4.562 0 0 1 -4.33-3.12l-.54-1.62a.443.443 0 0 0 -.42-.31h-.01l-1.98-12.9a.624.624 0 0 1 .42.51l.04.27a3.8 3.8 0 0 0 3.74 3.17 3.749 3.749 0 0 0 1.85-.48l5.12 7.3a4.618 4.618 0 0 1 .82 2.62 4.51 4.51 0 0 1 -1.14 3.01z" fill="#009e60"/><path d="m20.94 31.52a3.79 3.79 0 0 1 -1.94-3.31v-.77a3.79 3.79 0 0 1 .96-2.52l4.31-5.92.05-.02a3.107 3.107 0 0 0 2.79 2.02h.89l-1 7-.01.05a.624.624 0 0 0 -.42.51l-.04.27a3.8 3.8 0 0 1 -3.74 3.17 3.749 3.749 0 0 1 -1.85-.48z" fill="#00613b"/><path d="m33.14 19a3.107 3.107 0 0 0 2.78 2h.08l1 7 .01.05a.639.639 0 0 0 -.83.41l-.23.69a4.223 4.223 0 0 1 -1.52 2.06 4.128 4.128 0 0 1 -2.43.79 4.172 4.172 0 0 1 -3.95-2.85l-.23-.69a.639.639 0 0 0 -.83-.41l.01-.05 1-7h.08a3.107 3.107 0 0 0 2.78-2l.14-.33a1.088 1.088 0 0 1 2 0z" fill="#008f57"/><path d="m39.73 19 4.31 5.92a3.79 3.79 0 0 1 .96 2.52v.77a3.762 3.762 0 0 1 -1.11 2.68 3.87 3.87 0 0 1 -.83.63 3.749 3.749 0 0 1 -1.85.48 3.8 3.8 0 0 1 -3.74-3.17l-.04-.27a.624.624 0 0 0 -.42-.51l-.01-.05-1-7h.89a2.878 2.878 0 0 0 2.2-1.06 3.865 3.865 0 0 0 .59-.96z" fill="#009e60"/><path d="m32 9.26v8.75a1.08 1.08 0 0 0 -1 .66l-.14.33a3.107 3.107 0 0 1 -2.78 2h-.97a3.107 3.107 0 0 1 -2.79-2.02c0-.01-.01-.02-.01-.03a4.168 4.168 0 0 1 .16-3.5l2.94-5.48a5.817 5.817 0 0 1 1.05-1.42l-.24 1.17a1.078 1.078 0 0 0 1.71 1.06z" fill="#007145"/><path d="m34.07 10.78a1.078 1.078 0 0 0 1.71-1.06l-.24-1.19a6.511 6.511 0 0 1 1.05 1.44l2.94 5.48a4.168 4.168 0 0 1 .16 3.5c0 .01-.01.02-.01.03a3.865 3.865 0 0 1 -.59.96 2.878 2.878 0 0 1 -2.2 1.06h-.97a3.107 3.107 0 0 1 -2.78-2l-.14-.33a1.08 1.08 0 0 0 -1-.66v-8.75z" fill="#009e60"/><path d="m29.1 11.781 2.9-1.52v-1l-2.07 1.52a1.078 1.078 0 0 1 -1.71-1.06l.24-1.17a5.817 5.817 0 0 0 -1.05 1.42l-.665 1.24a1.763 1.763 0 0 0 2.355.57z" fill="#004a2d"/><path d="m32 16c0 1.105-1.789 2-4 2a3.99 3.99 0 0 1 -3.628-2.335 4.094 4.094 0 0 0 -.372 1.705 4.047 4.047 0 0 0 .31 1.58c0 .01.01.02.01.03a3.107 3.107 0 0 0 2.79 2.02h.97a3.107 3.107 0 0 0 2.78-2l.14-.33a1.08 1.08 0 0 1 1-.66z" fill="#009e60"/><path d="m39.628 15.665a3.99 3.99 0 0 1 -3.628 2.335c-2.211 0-4-.895-4-2v2.01a1.08 1.08 0 0 1 1 .66l.14.33a3.107 3.107 0 0 0 2.78 2h.97a2.878 2.878 0 0 0 2.2-1.06 3.865 3.865 0 0 0 .59-.96c0-.01.01-.02.01-.03a4.047 4.047 0 0 0 .31-1.58 4.094 4.094 0 0 0 -.372-1.705z" fill="#00c477"/><path d="m35.54 8.53.24 1.19a1.078 1.078 0 0 1 -1.71 1.06l-2.07-1.52v1l2.9 1.52a1.763 1.763 0 0 0 2.358-.571l-.668-1.239a6.511 6.511 0 0 0 -1.05-1.44z" fill="#007145"/><path d="m27.286 26h-.286a1 1 0 0 0 -1 1 3 3 0 0 1 -3 3c-1.829 0-3.352-1.539-3.83-3.632a3.794 3.794 0 0 0 -.17 1.072v.77a3.79 3.79 0 0 0 1.94 3.31 3.749 3.749 0 0 0 1.85.48 3.8 3.8 0 0 0 3.74-3.17l.04-.27a.624.624 0 0 1 .42-.51l.01-.05z" fill="#008f57"/><path d="m36.714 26h-.714a1 1 0 0 0 -1 1 2.7 2.7 0 0 1 -3 3 2.7 2.7 0 0 1 -3-3 1 1 0 0 0 -1-1h-.714l-.286 2-.01.05a.639.639 0 0 1 .83.41l.23.69a4.172 4.172 0 0 0 3.95 2.85 4.128 4.128 0 0 0 2.43-.79 4.223 4.223 0 0 0 1.52-2.06l.23-.69a.639.639 0 0 1 .83-.41l-.01-.05z" fill="#009e60"/><path d="m41 30a3 3 0 0 1 -3-3 1 1 0 0 0 -1-1h-.286l.286 2 .01.05a.624.624 0 0 1 .42.51l.04.27a3.8 3.8 0 0 0 3.74 3.17 3.749 3.749 0 0 0 1.85-.48 3.87 3.87 0 0 0 .83-.63 3.762 3.762 0 0 0 1.11-2.68v-.77a3.794 3.794 0 0 0 -.17-1.072c-.478 2.093-2.001 3.632-3.83 3.632z" fill="#00c477"/><path d="m27.724 22.935.276-1.935h-.89a3.107 3.107 0 0 1 -2.79-2.02l-.05.02-1.456 2a6.27 6.27 0 0 0 4.91 1.935z" fill="#004a2d"/><path d="m31 22 1-1 1 1a8.4 8.4 0 0 0 3.276.935l-.276-1.935h-.08a3.107 3.107 0 0 1 -2.78-2l-.14-.33a1.088 1.088 0 0 0 -2 0l-.14.33a3.107 3.107 0 0 1 -2.78 2h-.08l-.276 1.935a8.4 8.4 0 0 0 3.276-.935z" fill="#00613b"/><path d="m41.186 21-1.456-2-.05-.02a3.865 3.865 0 0 1 -.59.96 2.878 2.878 0 0 1 -2.2 1.06h-.89l.276 1.935a6.27 6.27 0 0 0 4.91-1.935z" fill="#007145"/><path d="m25 39c-3 0-2 5-6 5-3.175 0-3.2-3.771-3.074-5.331l-.106.151a4.618 4.618 0 0 0 -.82 2.62 4.51 4.51 0 0 0 1.14 3.01c.07.07.13.14.2.21a4.509 4.509 0 0 0 3.22 1.34h.15a4.562 4.562 0 0 0 4.33-3.12l.54-1.62a.442.442 0 0 1 .43-.31l.3-1.935c-.104-.007-.205-.015-.31-.015z" fill="#008f57"/><path d="m37 40a4 4 0 0 1 -4 4h-2a4 4 0 0 1 -4-4c0-.5-.735-.91-1.693-.985l-.3 1.935a.432.432 0 0 1 .41.31 6.936 6.936 0 0 0 13.16 0 .432.432 0 0 1 .41-.31l-.3-1.935c-.952.075-1.687.485-1.687.985z" fill="#009e60"/><path d="m48.18 38.82-.232-.331c.138 1.425.245 5.511-3.059 5.511-3.983 0-3.011-4.954-5.965-5-.078 0-.155.006-.231.011l.3 1.935h.007a.443.443 0 0 1 .42.31l.54 1.62a4.562 4.562 0 0 0 4.33 3.124h.15a4.57 4.57 0 0 0 4.56-4.56 4.618 4.618 0 0 0 -.82-2.62z" fill="#00c477"/><path d="m25.4 32.688a.95.95 0 0 1 .907-.186l.683-4.452a.624.624 0 0 0 -.42.51l-.04.27a3.8 3.8 0 0 1 -3.74 3.17 3.749 3.749 0 0 1 -1.85-.48l-1.208 1.722c1.292.374 3.999.907 5.668-.554z" fill="#004a2d"/><path d="m26.614 32.659c.746.583 2.308 1.341 5.386 1.341s4.64-.758 5.386-1.341a.942.942 0 0 1 .307-.157l-.683-4.452a.639.639 0 0 0 -.83.41l-.23.69a4.223 4.223 0 0 1 -1.52 2.06 4.128 4.128 0 0 1 -2.43.79 4.172 4.172 0 0 1 -3.95-2.85l-.23-.69a.639.639 0 0 0 -.83-.41l-.683 4.45a.942.942 0 0 1 .307.159z" fill="#00613b"/><path d="m38.6 32.688c1.669 1.461 4.376.928 5.668.554l-1.208-1.722a3.749 3.749 0 0 1 -1.85.48 3.8 3.8 0 0 1 -3.74-3.17l-.04-.27a.624.624 0 0 0 -.42-.51l.683 4.452a.95.95 0 0 1 .907.186z" fill="#007145"/><path d="m24 51c-2 0-3 4-8 4-3.362 0-4.008-2.611-4.073-4.981a5.071 5.071 0 0 0 4.163 7.981h.83a7.182 7.182 0 0 0 7.08-6l.089-.982a.876.876 0 0 0 -.089-.018z" fill="#007145"/><path d="m38.918 52c-.918 2.989-3.118 3.982-6.959 4h.041c-.014 0-.026 0-.041 0s-.026 0-.041 0h.041c-3.842-.018-5.959-1.011-6.959-4a.99.99 0 0 0 -.911-.982l-.089.982a6.26 6.26 0 0 0 1 3.39 7.338 7.338 0 0 0 1.34 1.56 8.577 8.577 0 0 0 5.66 2.05 8.238 8.238 0 0 0 7-3.61 6.26 6.26 0 0 0 1-3.39l-.091-1a1 1 0 0 0 -.991 1z" fill="#008f57"/><path d="m52 49.912c-.053 2.367-.67 5.088-4.082 5.088-5 0-6-4-8-4h-.009l.091 1a7.173 7.173 0 0 0 7.08 6h.83a5.061 5.061 0 0 0 4.09-8.088z" fill="#009e60"/><path d="m22.265 46.4a2.58 2.58 0 0 1 1.724-.4 3.6 3.6 0 0 1 .551.06l.46-5.06.01-.05a.442.442 0 0 0 -.43.31l-.54 1.62a4.562 4.562 0 0 1 -4.33 3.12h-.15a4.509 4.509 0 0 1 -3.22-1.34c-.07-.07-.13-.14-.2-.21l-1.656 2.181c1.04 1.179 3.74 3.3 7.781-.231z" fill="#003b24"/><path d="m24.54 46.06a4.146 4.146 0 0 1 2.312 1.187 6.937 6.937 0 0 0 5.148 1.753 6.937 6.937 0 0 0 5.148-1.753 4.146 4.146 0 0 1 2.312-1.187l-.46-5.06-.01-.05a.432.432 0 0 0 -.41.31 6.936 6.936 0 0 1 -13.16 0 .432.432 0 0 0 -.41-.31l-.01.05z" fill="#004a2d"/><path d="m39.46 46.06a3.6 3.6 0 0 1 .551-.06 2.58 2.58 0 0 1 1.724.4c4.041 3.53 6.741 1.409 7.781.23l-1.656-2.18a4.537 4.537 0 0 1 -3.42 1.55h-.15a4.562 4.562 0 0 1 -4.33-3.12l-.54-1.62a.443.443 0 0 0 -.42-.31h-.01l.01.05z" fill="#00613b"/><path d="m27 61.71a1.269 1.269 0 0 1 1.529-1.262 16.659 16.659 0 0 0 10.471-.948v-4.1a8.238 8.238 0 0 1 -7 3.6 8.577 8.577 0 0 1 -5.66-2.05 7.338 7.338 0 0 1 -1.34-1.56v5.61a2 2 0 0 0 2 2h1.29a1.289 1.289 0 0 1 -1.29-1.29z" fill="#61362b"/><path d="m32 1a1.081 1.081 0 0 0 -.97.6l-1.019 2.4h-.011l2 2z" fill="#f0af4c"/><path d="m30 4h-1.979a.967.967 0 0 0 -1.011 1l4.99 1z" fill="#ffba51"/><path d="m34 4h-.011l-1.019-2.4a1.081 1.081 0 0 0 -.97-.6v5z" fill="#faf180"/><path d="m35.293 7.1 1.365-1.337a1.083 1.083 0 0 0 .332-.763l-4.99 1z" fill="#ffba51"/><path d="m36.99 5a.967.967 0 0 0 -1.011-1h-1.979l-2 2z" fill="#ffd45d"/><path d="m27.01 5a1.083 1.083 0 0 0 .332.759l1.365 1.341 3.293-1.1z" fill="#f0af4c"/><path d="m32 9.261 2.069 1.521a1.069 1.069 0 0 0 1.17.076l-3.239-4.858z" fill="#ffba51"/><path d="m35.779 9.721-.24-1.19-.01-.01-.28-1.38.044-.043-3.293-1.098 3.239 4.858a1.036 1.036 0 0 0 .54-1.137z" fill="#ffd45d"/><path d="m28.707 7.1.044.043-.29 1.41-.24 1.17a1.036 1.036 0 0 0 .54 1.137l3.239-4.86z" fill="#ffd45d"/><path d="m28.761 10.858a1.069 1.069 0 0 0 1.17-.076l2.069-1.521v-3.261z" fill="#faf180"/><path d="m41.833 46.5-.254.5h-.392a.183.183 0 0 0 -.132.312l.313.307-.114.563a.185.185 0 0 0 .294.181l.452-.332.452.332a.185.185 0 0 0 .294-.181l-.114-.563.313-.307a.183.183 0 0 0 -.132-.312h-.392l-.254-.5a.188.188 0 0 0 -.334 0z" fill="#ebebff"/><path d="m28.833 36.5-.254.5h-.392a.183.183 0 0 0 -.132.312l.313.307-.114.563a.185.185 0 0 0 .294.181l.452-.332.452.332a.185.185 0 0 0 .294-.181l-.114-.563.313-.307a.183.183 0 0 0 -.132-.312h-.392l-.254-.5a.188.188 0 0 0 -.334 0z" fill="#ebebff"/><path d="m35.833 34.5-.254.5h-.392a.183.183 0 0 0 -.132.312l.313.307-.114.563a.185.185 0 0 0 .294.181l.452-.332.452.332a.185.185 0 0 0 .294-.181l-.114-.563.313-.307a.183.183 0 0 0 -.132-.312h-.392l-.254-.5a.188.188 0 0 0 -.334 0z" fill="#ebebff"/><path d="m41.833 25.5-.254.5h-.392a.183.183 0 0 0 -.132.312l.313.307-.114.563a.185.185 0 0 0 .294.181l.452-.332.452.332a.185.185 0 0 0 .294-.181l-.114-.563.313-.307a.183.183 0 0 0 -.132-.312h-.392l-.254-.5a.188.188 0 0 0 -.334 0z" fill="#fffefe"/><path d="m27.833 13.5-.254.5h-.392a.183.183 0 0 0 -.132.312l.313.307-.114.563a.185.185 0 0 0 .294.181l.452-.332.452.332a.185.185 0 0 0 .294-.181l-.114-.563.313-.307a.183.183 0 0 0 -.132-.312h-.392l-.254-.5a.188.188 0 0 0 -.334 0z" fill="#a4afe6"/><path d="m23.083 47.694-.513.167-.268-.268a.176.176 0 0 0 -.3.123v.423l-.462.3a.18.18 0 0 0 .077.325l.535.082.081.534a.179.179 0 0 0 .325.077l.3-.462h.423a.175.175 0 0 0 .123-.3l-.267-.267.166-.513a.182.182 0 0 0 -.22-.221z" fill="#a4afe6"/><path d="m13.833 49.5-.254.5h-.392a.183.183 0 0 0 -.132.312l.313.307-.114.563a.185.185 0 0 0 .294.181l.452-.332.452.332a.185.185 0 0 0 .294-.181l-.114-.563.313-.307a.183.183 0 0 0 -.132-.312h-.392l-.254-.5a.188.188 0 0 0 -.334 0z" fill="#a4afe6"/><path d="m43.917 35.752-.127.248h-.2a.091.091 0 0 0 -.066.155l.156.153-.057.281a.093.093 0 0 0 .147.091l.23-.166.225.166a.093.093 0 0 0 .147-.091l-.057-.281.156-.153a.091.091 0 0 0 -.066-.155h-.2l-.127-.248a.093.093 0 0 0 -.161 0z" fill="#ebebff"/><path d="m18.917 40.752-.127.248h-.2a.091.091 0 0 0 -.066.155l.156.153-.057.281a.093.093 0 0 0 .147.091l.23-.166.225.166a.093.093 0 0 0 .147-.091l-.057-.281.156-.153a.091.091 0 0 0 -.066-.155h-.2l-.127-.248a.093.093 0 0 0 -.161 0z" fill="#a4afe6"/><path d="m26.917 41.752-.127.248h-.2a.091.091 0 0 0 -.066.155l.156.153-.057.281a.093.093 0 0 0 .147.091l.23-.166.225.166a.093.093 0 0 0 .147-.091l-.057-.281.156-.153a.091.091 0 0 0 -.066-.155h-.2l-.127-.248a.093.093 0 0 0 -.161 0z" fill="#ebebff"/><path d="m47.917 52.752-.127.248h-.2a.091.091 0 0 0 -.066.155l.156.153-.057.281a.093.093 0 0 0 .147.091l.23-.166.225.166a.093.093 0 0 0 .147-.091l-.057-.281.156-.153a.091.091 0 0 0 -.066-.155h-.2l-.127-.248a.093.093 0 0 0 -.161 0z" fill="#ebebff"/><path d="m36.917 12.752-.127.248h-.2a.091.091 0 0 0 -.066.155l.156.153-.057.281a.093.093 0 0 0 .147.091l.23-.166.225.166a.093.093 0 0 0 .147-.091l-.057-.281.156-.153a.091.091 0 0 0 -.066-.155h-.2l-.127-.248a.093.093 0 0 0 -.161 0z" fill="#fffefe"/><path d="m30.917 15.752-.127.248h-.2a.091.091 0 0 0 -.066.155l.156.153-.057.281a.093.093 0 0 0 .147.091l.23-.166.225.166a.093.093 0 0 0 .147-.091l-.057-.281.156-.153a.091.091 0 0 0 -.066-.155h-.2l-.127-.248a.093.093 0 0 0 -.161 0z" fill="#a4afe6"/><path d="m45.347 39.459.083.256-.133.134a.088.088 0 0 0 .061.151h.212l.152.231a.09.09 0 0 0 .163-.039l.04-.267.268-.041a.09.09 0 0 0 .038-.162l-.231-.155v-.211a.088.088 0 0 0 -.151-.061l-.134.133-.256-.083a.091.091 0 0 0 -.112.114z" fill="#ebebff"/><path d="m42.347 41.459.083.256-.133.134a.088.088 0 0 0 .061.151h.212l.152.231a.09.09 0 0 0 .163-.039l.04-.267.268-.041a.09.09 0 0 0 .038-.162l-.231-.155v-.211a.088.088 0 0 0 -.151-.061l-.134.133-.256-.083a.091.091 0 0 0 -.112.114z" fill="#ebebff"/><path d="m36.347 48.459.083.256-.133.134a.088.088 0 0 0 .061.151h.212l.152.231a.09.09 0 0 0 .163-.039l.04-.267.268-.041a.09.09 0 0 0 .038-.162l-.231-.155v-.211a.088.088 0 0 0 -.151-.061l-.134.133-.256-.083a.091.091 0 0 0 -.112.114z" fill="#ebebff"/><path d="m28.347 53.459.083.256-.133.134a.088.088 0 0 0 .061.151h.212l.152.231a.09.09 0 0 0 .163-.039l.04-.267.268-.041a.09.09 0 0 0 .038-.162l-.231-.155v-.211a.088.088 0 0 0 -.151-.061l-.134.133-.256-.083a.091.091 0 0 0 -.112.114z" fill="#a4afe6"/><path d="m19.347 53.459.083.256-.133.134a.088.088 0 0 0 .061.151h.212l.152.231a.09.09 0 0 0 .163-.039l.04-.267.268-.041a.09.09 0 0 0 .038-.162l-.231-.155v-.211a.088.088 0 0 0 -.151-.061l-.134.133-.256-.083a.091.091 0 0 0 -.112.114z" fill="#a4afe6"/><path d="m19.347 38.459.083.256-.133.134a.088.088 0 0 0 .061.151h.212l.152.231a.09.09 0 0 0 .163-.039l.04-.267.268-.041a.09.09 0 0 0 .038-.162l-.231-.155v-.211a.088.088 0 0 0 -.151-.061l-.134.133-.256-.083a.091.091 0 0 0 -.112.114z" fill="#a4afe6"/><path d="m21.917 26.752-.127.248h-.2a.091.091 0 0 0 -.066.155l.156.153-.057.281a.093.093 0 0 0 .147.091l.23-.166.225.166a.093.093 0 0 0 .147-.091l-.057-.281.156-.153a.091.091 0 0 0 -.066-.155h-.2l-.127-.248a.093.093 0 0 0 -.161 0z" fill="#a4afe6"/><path d="m39.917 28.752-.127.248h-.2a.091.091 0 0 0 -.066.155l.156.153-.057.281a.093.093 0 0 0 .147.091l.23-.166.225.166a.093.093 0 0 0 .147-.091l-.057-.281.156-.153a.091.091 0 0 0 -.066-.155h-.2l-.127-.248a.093.093 0 0 0 -.161 0z" fill="#ebebff"/><path d="m32.347 22.459.083.256-.133.134a.088.088 0 0 0 .061.151h.212l.152.231a.09.09 0 0 0 .163-.039l.04-.267.268-.041a.09.09 0 0 0 .038-.162l-.231-.155v-.211a.088.088 0 0 0 -.151-.061l-.134.133-.256-.083a.091.091 0 0 0 -.112.114z" fill="#a4afe6"/><path d="m32 14a1.99 1.99 0 0 1 .18-.82 2 2 0 1 0 2.64 2.64 1.992 1.992 0 0 1 -2.82-1.82z" fill="#004a2d"/><path d="m37 24a1.99 1.99 0 0 1 .18-.82 2 2 0 1 0 2.64 2.64 1.992 1.992 0 0 1 -2.82-1.82z" fill="#004a2d"/><path d="m30 26a1.99 1.99 0 0 1 .18-.82 2 2 0 1 0 2.64 2.64 1.992 1.992 0 0 1 -2.82-1.82z" fill="#004a2d"/><path d="m23 24a1.99 1.99 0 0 1 .18-.82 2 2 0 1 0 2.64 2.64 1.992 1.992 0 0 1 -2.82-1.82z" fill="#003b24"/><g fill="#004a2d"><path d="m39 36a1.99 1.99 0 0 1 .18-.82 2 2 0 1 0 2.64 2.64 1.992 1.992 0 0 1 -2.82-1.82z"/><path d="m31 40a1.99 1.99 0 0 1 .18-.82 2 2 0 1 0 2.64 2.64 1.992 1.992 0 0 1 -2.82-1.82z"/><path d="m45 49a1.99 1.99 0 0 1 .18-.82 2 2 0 1 0 2.64 2.64 1.992 1.992 0 0 1 -2.82-1.82z"/><path d="m32 53a1.99 1.99 0 0 1 .18-.82 2 2 0 1 0 2.64 2.64 1.992 1.992 0 0 1 -2.82-1.82z"/><path d="m26 48a1.99 1.99 0 0 1 .18-.82 2 2 0 1 0 2.64 2.64 1.992 1.992 0 0 1 -2.82-1.82z"/></g><path d="m16 51a1.99 1.99 0 0 1 .18-.82 2 2 0 1 0 2.64 2.64 1.992 1.992 0 0 1 -2.82-1.82z" fill="#003b24"/><path d="m21 36a1.99 1.99 0 0 1 .18-.82 2 2 0 1 0 2.64 2.64 1.992 1.992 0 0 1 -2.82-1.82z" fill="#003b24"/><path d="m37.626 11.9-.478-.89c-3.782 2.803-6.661 4.49-12.148 4.49h-.553a3.922 3.922 0 0 0 -.351 1h.904c5.712 0 8.836-1.8 12.626-4.6z" fill="#a4afe6"/><path d="m42.278 22.5-.657-.9c-1.629.52-12.235 3.78-22.08 3.9a3.768 3.768 0 0 0 -.407 1c10.455-.031 21.888-3.656 22.946-4z" fill="#a4afe6"/><path d="m45.15 34.5-.577-.823c-1.228.74-10.243 5.742-29.134 5.819a4.586 4.586 0 0 0 -.329 1c19.733-.02 28.818-5.238 30.036-6z" fill="#a4afe6"/><path d="m23.835 52.729.217-.01a6.319 6.319 0 0 1 -.052-.719 7.338 7.338 0 0 1 -.165.729z" fill="#2a2e33"/><path d="m49.417 46.5-.692-.911c-.006 0-.013 0-.019.007-.109.078-11.108 7.83-37.488 5.918a5.009 5.009 0 0 0 -.181.989c3.023.223 5.842.322 8.47.322 1.509 0 2.946-.036 4.328-.1a7.338 7.338 0 0 0 .165-.725 6.319 6.319 0 0 0 .052.719c16.411-.757 23.973-5.45 25.1-6.219z" fill="#a4afe6"/><circle cx="34" cy="14" fill="#eb2335" r="2"/><path d="m33 13a1.99 1.99 0 0 1 .18-.82 2 2 0 1 0 2.64 2.64 1.992 1.992 0 0 1 -2.82-1.82z" fill="#c22026"/><path d="m34 13a1 1 0 0 0 1.9.416 1.989 1.989 0 0 0 -1.316-1.316.994.994 0 0 0 -.584.9z" fill="#f6fafd"/><circle cx="39" cy="24" fill="#eb2335" r="2"/><path d="m38 23a1.99 1.99 0 0 1 .18-.82 2 2 0 1 0 2.64 2.64 1.992 1.992 0 0 1 -2.82-1.82z" fill="#c22026"/><path d="m39 23a1 1 0 0 0 1.9.416 1.989 1.989 0 0 0 -1.316-1.316.994.994 0 0 0 -.584.9z" fill="#f6fafd"/><circle cx="25" cy="24" fill="#eb2335" r="2"/><path d="m24 23a1.99 1.99 0 0 1 .18-.82 2 2 0 1 0 2.64 2.64 1.992 1.992 0 0 1 -2.82-1.82z" fill="#c22026"/><path d="m25 23a1 1 0 0 0 1.9.416 1.989 1.989 0 0 0 -1.316-1.316.994.994 0 0 0 -.584.9z" fill="#f6fafd"/><circle cx="32" cy="26" fill="#ffd45d" r="2"/><path d="m31 25a1.99 1.99 0 0 1 .18-.82 2 2 0 1 0 2.64 2.64 1.992 1.992 0 0 1 -2.82-1.82z" fill="#f0af4c"/><path d="m32 25a1 1 0 0 0 1.9.416 1.989 1.989 0 0 0 -1.316-1.316.994.994 0 0 0 -.584.9z" fill="#f6fafd"/><circle cx="41" cy="36" fill="#ffd45d" r="2"/><path d="m40 35a1.99 1.99 0 0 1 .18-.82 2 2 0 1 0 2.64 2.64 1.992 1.992 0 0 1 -2.82-1.82z" fill="#f0af4c"/><path d="m41 35a1 1 0 0 0 1.9.416 1.989 1.989 0 0 0 -1.316-1.316.994.994 0 0 0 -.584.9z" fill="#f6fafd"/><circle cx="33" cy="40" fill="#eb2335" r="2"/><path d="m32 39a1.99 1.99 0 0 1 .18-.82 2 2 0 1 0 2.64 2.64 1.992 1.992 0 0 1 -2.82-1.82z" fill="#c22026"/><path d="m33 39a1 1 0 0 0 1.9.416 1.989 1.989 0 0 0 -1.316-1.316.994.994 0 0 0 -.584.9z" fill="#f6fafd"/><circle cx="47" cy="49" fill="#ffd45d" r="2"/><path d="m46 48a1.99 1.99 0 0 1 .18-.82 2 2 0 1 0 2.64 2.64 1.992 1.992 0 0 1 -2.82-1.82z" fill="#f0af4c"/><path d="m47 48a1 1 0 0 0 1.9.416 1.989 1.989 0 0 0 -1.316-1.316.994.994 0 0 0 -.584.9z" fill="#f6fafd"/><circle cx="34" cy="53" fill="#eb2335" r="2"/><path d="m33 52a1.99 1.99 0 0 1 .18-.82 2 2 0 1 0 2.64 2.64 1.992 1.992 0 0 1 -2.82-1.82z" fill="#c22026"/><path d="m34 52a1 1 0 0 0 1.9.416 1.989 1.989 0 0 0 -1.316-1.316.994.994 0 0 0 -.584.9z" fill="#f6fafd"/><circle cx="28" cy="48" fill="#ced1ea" r="2"/><path d="m27 47a1.99 1.99 0 0 1 .18-.82 2 2 0 1 0 2.64 2.64 1.992 1.992 0 0 1 -2.82-1.82z" fill="#a4afe6"/><path d="m28 47a1 1 0 0 0 1.9.416 1.989 1.989 0 0 0 -1.316-1.316.994.994 0 0 0 -.584.9z" fill="#f6fafd"/><circle cx="18" cy="51" fill="#ffd45d" r="2"/><path d="m17 50a1.99 1.99 0 0 1 .18-.82 2 2 0 1 0 2.64 2.64 1.992 1.992 0 0 1 -2.82-1.82z" fill="#f0af4c"/><path d="m18 50a1 1 0 0 0 1.9.416 1.989 1.989 0 0 0 -1.316-1.316.994.994 0 0 0 -.584.9z" fill="#f6fafd"/><circle cx="23" cy="36" fill="#ced1ea" r="2"/><path d="m22 35a1.99 1.99 0 0 1 .18-.82 2 2 0 1 0 2.64 2.64 1.992 1.992 0 0 1 -2.82-1.82z" fill="#a4afe6"/><path d="m23 35a1 1 0 0 0 1.9.416 1.989 1.989 0 0 0 -1.316-1.316.994.994 0 0 0 -.584.9z" fill="#f6fafd"/></g></svg>