<?xml version="1.0" encoding="UTF-8" standalone="no"?>
<!DOCTYPE svg PUBLIC "-//W3C//DTD SVG 1.1//EN" "http://www.w3.org/Graphics/SVG/1.1/DTD/svg11.dtd">
<svg width="100%" height="100%" viewBox="0 0 366 205" version="1.1" xmlns="http://www.w3.org/2000/svg" xmlns:xlink="http://www.w3.org/1999/xlink" xml:space="preserve" xmlns:serif="http://www.serif.com/" style="fill-rule:evenodd;clip-rule:evenodd;stroke-linejoin:round;stroke-miterlimit:2;">
    <g transform="matrix(1,0,0,1,-69,-272)">
        <g transform="matrix(1.24053,0,0,1.24053,311.018,255.425)">
            <g transform="matrix(1,0,0,1,6.17773,14.2392)">
                <path d="M34.591,35.551C38.702,33.837 38.866,27.3 37.04,23.891C34.591,19.318 28.407,20.078 24.233,21.272C25.39,17.947 27.513,13.406 31.347,12.75C35.153,12.099 38.88,14.462 42.191,15.993C45.147,17.362 50.344,19.08 52.479,15.346C53.127,13.77 51.201,12.471 49.513,11.399C47.828,10.329 46.034,9.304 44.161,8.602C84.712,0 85.83,85.081 42.9,72.955C39.801,72.081 36.819,70.821 33.95,69.367C37.959,69.7 42.277,69.275 45.485,66.675C48.233,64.448 49.683,59.804 45.156,58.725C41.088,57.755 36.657,60.232 32.645,60.573C27.592,61.002 23.283,61.129 20.41,57.145C22.634,56.867 24.356,56.275 25.229,55.644C26.74,54.551 28.205,53.021 28.338,51.071C28.595,47.341 25.729,43.847 22.519,42.258C21.034,41.524 19.258,41.263 17.654,41.735C15.589,42.345 14.993,44.127 13.547,45.497C12.131,46.838 10.809,47.819 8.857,48.209C6.582,48.611 4.383,47.519 2.63,46.16C1.672,45.415 0.856,44.514 0,43.657C3.658,44.18 8.535,45.123 10.679,41.019C12.402,37.717 10.357,33.963 12.179,30.622C14.52,26.334 20.459,29.694 23.376,31.379C26.723,33.313 30.055,37.439 34.591,35.551Z" style="fill:rgb(67,114,167);fill-rule:nonzero;"/>
            </g>
            <g transform="matrix(1,0,0,1,57.6143,44.3525)">
                <path d="M2.939,23.355C5.25,20.003 6.472,16.079 6.472,12.008C6.472,8.024 5.302,4.173 3.088,0.871C2.627,0.184 1.695,0 1.007,0.46C0.318,0.922 0.135,1.855 0.596,2.542C2.478,5.348 3.472,8.621 3.472,12.008C3.472,15.468 2.434,18.803 0.47,21.652C0,22.335 0.171,23.269 0.854,23.739C1.535,24.209 2.47,24.037 2.939,23.355Z" style="fill:white;fill-rule:nonzero;"/>
            </g>
            <g transform="matrix(1,0,0,1,63.4053,40.4443)">
                <path d="M2.939,31.248C6.059,26.724 7.707,21.422 7.707,15.916C7.707,10.532 6.127,5.329 3.139,0.871C2.677,0.184 1.745,0 1.057,0.461C0.368,0.922 0.185,1.855 0.647,2.542C3.303,6.505 4.707,11.129 4.707,15.916C4.707,20.812 3.242,25.524 0.471,29.545C0,30.228 0.172,31.161 0.855,31.632C1.535,32.102 2.47,31.93 2.939,31.248Z" style="fill:white;fill-rule:nonzero;"/>
            </g>
            <g transform="matrix(1,0,0,1,68.9297,36.7138)">
                <path d="M0.695,2.543C4.093,7.61 5.889,13.524 5.889,19.647C5.889,25.905 4.015,31.933 0.471,37.076C0,37.759 0.172,38.692 0.855,39.163C1.536,39.633 2.471,39.461 2.939,38.779C6.832,33.132 8.889,26.517 8.889,19.647C8.889,12.927 6.918,6.435 3.187,0.872C2.726,0.184 1.793,0 1.106,0.461C0.418,0.923 0.234,1.855 0.695,2.543Z" style="fill:white;fill-rule:nonzero;"/>
            </g>
        </g>
        <g transform="matrix(1,0,0,1,-13,293)">
            <g transform="matrix(46,0,0,46,92,71.8711)">
                <path d="M0.742,-0.592L0.647,-0.501C0.582,-0.57 0.508,-0.604 0.427,-0.604C0.358,-0.604 0.301,-0.581 0.254,-0.534C0.207,-0.487 0.183,-0.429 0.183,-0.36C0.183,-0.312 0.194,-0.27 0.214,-0.233C0.235,-0.195 0.265,-0.166 0.303,-0.145C0.341,-0.124 0.383,-0.113 0.429,-0.113C0.469,-0.113 0.505,-0.121 0.538,-0.136C0.571,-0.15 0.607,-0.177 0.647,-0.216L0.739,-0.12C0.686,-0.068 0.636,-0.032 0.589,-0.012C0.542,0.008 0.488,0.018 0.427,0.018C0.316,0.018 0.224,-0.017 0.153,-0.088C0.082,-0.159 0.046,-0.25 0.046,-0.36C0.046,-0.432 0.063,-0.496 0.095,-0.551C0.127,-0.607 0.174,-0.652 0.234,-0.686C0.295,-0.719 0.36,-0.736 0.429,-0.736C0.488,-0.736 0.545,-0.724 0.6,-0.699C0.655,-0.674 0.702,-0.638 0.742,-0.592Z" style="fill:rgb(67,114,167);fill-rule:nonzero;"/>
            </g>
            <g transform="matrix(46,0,0,46,126.398,71.8711)">
                <path d="M0.328,-0.545C0.409,-0.545 0.477,-0.515 0.531,-0.456C0.58,-0.402 0.604,-0.338 0.604,-0.264C0.604,-0.19 0.579,-0.125 0.527,-0.07C0.475,-0.014 0.409,0.014 0.328,0.014C0.246,0.014 0.18,-0.014 0.128,-0.07C0.076,-0.125 0.05,-0.19 0.05,-0.264C0.05,-0.338 0.075,-0.402 0.124,-0.456C0.177,-0.515 0.245,-0.545 0.328,-0.545ZM0.327,-0.478C0.271,-0.478 0.222,-0.457 0.181,-0.415C0.14,-0.373 0.12,-0.322 0.12,-0.263C0.12,-0.224 0.129,-0.188 0.148,-0.155C0.166,-0.122 0.191,-0.096 0.223,-0.078C0.255,-0.06 0.289,-0.051 0.327,-0.051C0.365,-0.051 0.4,-0.06 0.432,-0.078C0.463,-0.096 0.489,-0.122 0.507,-0.155C0.526,-0.188 0.535,-0.224 0.535,-0.263C0.535,-0.322 0.515,-0.373 0.474,-0.415C0.433,-0.457 0.384,-0.478 0.327,-0.478Z" style="fill:rgb(67,114,167);fill-rule:nonzero;"/>
            </g>
            <g transform="matrix(46,0,0,46,155.046,71.8711)">
                <path d="M0.076,-0.531L0.145,-0.531L0.145,-0.436C0.172,-0.472 0.202,-0.5 0.235,-0.518C0.269,-0.536 0.305,-0.545 0.344,-0.545C0.383,-0.545 0.419,-0.535 0.449,-0.515C0.48,-0.494 0.503,-0.467 0.518,-0.433C0.532,-0.399 0.54,-0.346 0.54,-0.273L0.54,0L0.471,0L0.471,-0.253C0.471,-0.315 0.469,-0.355 0.464,-0.376C0.456,-0.411 0.44,-0.438 0.418,-0.455C0.396,-0.473 0.366,-0.482 0.33,-0.482C0.289,-0.482 0.252,-0.468 0.219,-0.441C0.186,-0.414 0.165,-0.38 0.154,-0.339C0.148,-0.313 0.145,-0.265 0.145,-0.195L0.145,0L0.076,0L0.076,-0.531Z" style="fill:rgb(67,114,167);fill-rule:nonzero;"/>
            </g>
            <g transform="matrix(46,0,0,46,181.628,71.8711)">
                <path d="M0.136,-0.729L0.204,-0.729L0.204,-0.531L0.313,-0.531L0.313,-0.472L0.204,-0.472L0.204,0L0.136,0L0.136,-0.472L0.042,-0.472L0.042,-0.531L0.136,-0.531L0.136,-0.729Z" style="fill:rgb(67,114,167);fill-rule:nonzero;"/>
            </g>
            <g transform="matrix(46,0,0,46,195.744,71.8711)">
                <path d="M0.1,-0.75C0.115,-0.75 0.129,-0.744 0.14,-0.733C0.151,-0.722 0.156,-0.709 0.156,-0.693C0.156,-0.678 0.151,-0.665 0.14,-0.654C0.129,-0.643 0.115,-0.637 0.1,-0.637C0.085,-0.637 0.071,-0.643 0.06,-0.654C0.049,-0.665 0.044,-0.678 0.044,-0.693C0.044,-0.709 0.049,-0.722 0.06,-0.733C0.071,-0.744 0.085,-0.75 0.1,-0.75ZM0.066,-0.531L0.134,-0.531L0.134,0L0.066,0L0.066,-0.531Z" style="fill:rgb(67,114,167);fill-rule:nonzero;"/>
            </g>
            <g transform="matrix(46,0,0,46,203.481,71.8711)">
                <path d="M0.076,-0.531L0.145,-0.531L0.145,-0.436C0.172,-0.472 0.202,-0.5 0.235,-0.518C0.269,-0.536 0.305,-0.545 0.344,-0.545C0.383,-0.545 0.419,-0.535 0.449,-0.515C0.48,-0.494 0.503,-0.467 0.518,-0.433C0.532,-0.399 0.54,-0.346 0.54,-0.273L0.54,0L0.471,0L0.471,-0.253C0.471,-0.315 0.469,-0.355 0.464,-0.376C0.456,-0.411 0.44,-0.438 0.418,-0.455C0.396,-0.473 0.366,-0.482 0.33,-0.482C0.289,-0.482 0.252,-0.468 0.219,-0.441C0.186,-0.414 0.165,-0.38 0.154,-0.339C0.148,-0.313 0.145,-0.265 0.145,-0.195L0.145,0L0.076,0L0.076,-0.531Z" style="fill:rgb(67,114,167);fill-rule:nonzero;"/>
            </g>
            <g transform="matrix(46,0,0,46,230.063,71.8711)">
                <path d="M0.067,-0.531L0.136,-0.531L0.136,-0.283C0.136,-0.223 0.139,-0.181 0.146,-0.158C0.155,-0.126 0.174,-0.1 0.202,-0.081C0.229,-0.062 0.262,-0.053 0.3,-0.053C0.338,-0.053 0.371,-0.062 0.397,-0.08C0.424,-0.099 0.442,-0.123 0.452,-0.153C0.459,-0.173 0.462,-0.217 0.462,-0.283L0.462,-0.531L0.532,-0.531L0.532,-0.271C0.532,-0.197 0.524,-0.142 0.507,-0.105C0.49,-0.068 0.464,-0.039 0.429,-0.018C0.395,0.003 0.352,0.014 0.3,0.014C0.249,0.014 0.205,0.003 0.171,-0.018C0.136,-0.039 0.11,-0.068 0.093,-0.106C0.076,-0.143 0.067,-0.2 0.067,-0.275L0.067,-0.531Z" style="fill:rgb(67,114,167);fill-rule:nonzero;"/>
            </g>
            <g transform="matrix(46,0,0,46,256.554,71.8711)">
                <path d="M0.328,-0.545C0.409,-0.545 0.477,-0.515 0.531,-0.456C0.58,-0.402 0.604,-0.338 0.604,-0.264C0.604,-0.19 0.579,-0.125 0.527,-0.07C0.475,-0.014 0.409,0.014 0.328,0.014C0.246,0.014 0.18,-0.014 0.128,-0.07C0.076,-0.125 0.05,-0.19 0.05,-0.264C0.05,-0.338 0.075,-0.402 0.124,-0.456C0.177,-0.515 0.245,-0.545 0.328,-0.545ZM0.327,-0.478C0.271,-0.478 0.222,-0.457 0.181,-0.415C0.14,-0.373 0.12,-0.322 0.12,-0.263C0.12,-0.224 0.129,-0.188 0.148,-0.155C0.166,-0.122 0.191,-0.096 0.223,-0.078C0.255,-0.06 0.289,-0.051 0.327,-0.051C0.365,-0.051 0.4,-0.06 0.432,-0.078C0.463,-0.096 0.489,-0.122 0.507,-0.155C0.526,-0.188 0.535,-0.224 0.535,-0.263C0.535,-0.322 0.515,-0.373 0.474,-0.415C0.433,-0.457 0.384,-0.478 0.327,-0.478Z" style="fill:rgb(67,114,167);fill-rule:nonzero;"/>
            </g>
            <g transform="matrix(46,0,0,46,285.203,71.8711)">
                <path d="M0.067,-0.531L0.136,-0.531L0.136,-0.283C0.136,-0.223 0.139,-0.181 0.146,-0.158C0.155,-0.126 0.174,-0.1 0.202,-0.081C0.229,-0.062 0.262,-0.053 0.3,-0.053C0.338,-0.053 0.371,-0.062 0.397,-0.08C0.424,-0.099 0.442,-0.123 0.452,-0.153C0.459,-0.173 0.462,-0.217 0.462,-0.283L0.462,-0.531L0.532,-0.531L0.532,-0.271C0.532,-0.197 0.524,-0.142 0.507,-0.105C0.49,-0.068 0.464,-0.039 0.429,-0.018C0.395,0.003 0.352,0.014 0.3,0.014C0.249,0.014 0.205,0.003 0.171,-0.018C0.136,-0.039 0.11,-0.068 0.093,-0.106C0.076,-0.143 0.067,-0.2 0.067,-0.275L0.067,-0.531Z" style="fill:rgb(67,114,167);fill-rule:nonzero;"/>
            </g>
            <g transform="matrix(46,0,0,46,311.694,71.8711)">
                <path d="M0.343,-0.473L0.299,-0.428C0.263,-0.463 0.227,-0.481 0.192,-0.481C0.17,-0.481 0.151,-0.474 0.135,-0.459C0.119,-0.444 0.111,-0.427 0.111,-0.408C0.111,-0.39 0.118,-0.374 0.131,-0.358C0.144,-0.342 0.171,-0.324 0.213,-0.302C0.264,-0.276 0.299,-0.25 0.317,-0.226C0.335,-0.201 0.344,-0.174 0.344,-0.143C0.344,-0.099 0.328,-0.062 0.298,-0.032C0.267,-0.001 0.229,0.014 0.183,0.014C0.152,0.014 0.123,0.007 0.095,-0.006C0.067,-0.02 0.044,-0.038 0.026,-0.062L0.069,-0.11C0.104,-0.071 0.141,-0.051 0.18,-0.051C0.207,-0.051 0.231,-0.06 0.25,-0.078C0.269,-0.095 0.279,-0.116 0.279,-0.14C0.279,-0.159 0.272,-0.177 0.26,-0.192C0.247,-0.207 0.218,-0.226 0.174,-0.249C0.126,-0.273 0.093,-0.298 0.076,-0.322C0.058,-0.346 0.05,-0.373 0.05,-0.404C0.05,-0.445 0.064,-0.478 0.091,-0.505C0.119,-0.532 0.153,-0.545 0.196,-0.545C0.244,-0.545 0.294,-0.521 0.343,-0.473Z" style="fill:rgb(67,114,167);fill-rule:nonzero;"/>
            </g>
            <g transform="matrix(1.12,0,0,1,-11.04,0)">
                <g transform="matrix(46,0,0,46,92,113.871)">
                    <path d="M0.083,-0.718L0.244,-0.718C0.349,-0.718 0.426,-0.705 0.477,-0.679C0.528,-0.654 0.57,-0.611 0.603,-0.553C0.635,-0.495 0.652,-0.427 0.652,-0.349C0.652,-0.294 0.643,-0.243 0.624,-0.197C0.606,-0.15 0.581,-0.112 0.548,-0.081C0.516,-0.05 0.481,-0.029 0.443,-0.018C0.405,-0.006 0.34,0 0.247,0L0.083,0L0.083,-0.718ZM0.218,-0.586L0.218,-0.133L0.282,-0.133C0.344,-0.133 0.39,-0.14 0.418,-0.155C0.446,-0.169 0.469,-0.193 0.487,-0.227C0.505,-0.261 0.514,-0.303 0.514,-0.352C0.514,-0.429 0.492,-0.488 0.45,-0.53C0.411,-0.568 0.35,-0.586 0.265,-0.586L0.218,-0.586Z" style="fill:rgb(67,114,167);fill-rule:nonzero;"/>
                </g>
            </g>
            <g transform="matrix(46,0,0,46,126.425,113.871)">
                <path d="M0.328,-0.545C0.409,-0.545 0.477,-0.515 0.531,-0.456C0.58,-0.402 0.604,-0.338 0.604,-0.264C0.604,-0.19 0.579,-0.125 0.527,-0.07C0.475,-0.014 0.409,0.014 0.328,0.014C0.246,0.014 0.18,-0.014 0.128,-0.07C0.076,-0.125 0.05,-0.19 0.05,-0.264C0.05,-0.338 0.075,-0.402 0.124,-0.456C0.177,-0.515 0.245,-0.545 0.328,-0.545ZM0.327,-0.478C0.271,-0.478 0.222,-0.457 0.181,-0.415C0.14,-0.373 0.12,-0.322 0.12,-0.263C0.12,-0.224 0.129,-0.188 0.148,-0.155C0.166,-0.122 0.191,-0.096 0.223,-0.078C0.255,-0.06 0.289,-0.051 0.327,-0.051C0.365,-0.051 0.4,-0.06 0.432,-0.078C0.463,-0.096 0.489,-0.122 0.507,-0.155C0.526,-0.188 0.535,-0.224 0.535,-0.263C0.535,-0.322 0.515,-0.373 0.474,-0.415C0.433,-0.457 0.384,-0.478 0.327,-0.478Z" style="fill:rgb(67,114,167);fill-rule:nonzero;"/>
            </g>
            <g transform="matrix(46,0,0,46,155.074,113.871)">
                <path d="M0.592,-0.421L0.538,-0.387C0.491,-0.449 0.427,-0.48 0.346,-0.48C0.281,-0.48 0.227,-0.46 0.185,-0.418C0.142,-0.376 0.121,-0.326 0.121,-0.266C0.121,-0.228 0.13,-0.191 0.15,-0.157C0.17,-0.123 0.197,-0.096 0.231,-0.078C0.265,-0.059 0.304,-0.049 0.346,-0.049C0.424,-0.049 0.488,-0.08 0.538,-0.143L0.592,-0.107C0.566,-0.069 0.532,-0.039 0.49,-0.018C0.447,0.003 0.398,0.014 0.343,0.014C0.259,0.014 0.19,-0.013 0.134,-0.066C0.079,-0.12 0.051,-0.185 0.051,-0.261C0.051,-0.313 0.064,-0.36 0.09,-0.405C0.116,-0.449 0.152,-0.483 0.197,-0.508C0.242,-0.533 0.293,-0.545 0.349,-0.545C0.384,-0.545 0.418,-0.54 0.45,-0.529C0.483,-0.518 0.511,-0.504 0.534,-0.487C0.556,-0.47 0.576,-0.448 0.592,-0.421Z" style="fill:rgb(67,114,167);fill-rule:nonzero;"/>
            </g>
            <g transform="matrix(46,0,0,46,183.362,113.871)">
                <path d="M0.067,-0.531L0.136,-0.531L0.136,-0.283C0.136,-0.223 0.139,-0.181 0.146,-0.158C0.155,-0.126 0.174,-0.1 0.202,-0.081C0.229,-0.062 0.262,-0.053 0.3,-0.053C0.338,-0.053 0.371,-0.062 0.397,-0.08C0.424,-0.099 0.442,-0.123 0.452,-0.153C0.459,-0.173 0.462,-0.217 0.462,-0.283L0.462,-0.531L0.532,-0.531L0.532,-0.271C0.532,-0.197 0.524,-0.142 0.507,-0.105C0.49,-0.068 0.464,-0.039 0.429,-0.018C0.395,0.003 0.352,0.014 0.3,0.014C0.249,0.014 0.205,0.003 0.171,-0.018C0.136,-0.039 0.11,-0.068 0.093,-0.106C0.076,-0.143 0.067,-0.2 0.067,-0.275L0.067,-0.531Z" style="fill:rgb(67,114,167);fill-rule:nonzero;"/>
            </g>
            <g transform="matrix(46,0,0,46,209.854,113.871)">
                <path d="M0.076,-0.531L0.144,-0.531L0.144,-0.439C0.168,-0.473 0.192,-0.498 0.217,-0.514C0.252,-0.535 0.288,-0.545 0.326,-0.545C0.352,-0.545 0.377,-0.54 0.4,-0.53C0.423,-0.52 0.442,-0.506 0.456,-0.49C0.471,-0.473 0.484,-0.449 0.495,-0.417C0.517,-0.459 0.546,-0.491 0.58,-0.512C0.614,-0.534 0.651,-0.545 0.69,-0.545C0.727,-0.545 0.759,-0.536 0.787,-0.517C0.815,-0.499 0.836,-0.473 0.85,-0.439C0.863,-0.406 0.87,-0.356 0.87,-0.29L0.87,0L0.8,0L0.8,-0.29C0.8,-0.347 0.796,-0.386 0.788,-0.407C0.78,-0.429 0.766,-0.446 0.747,-0.459C0.727,-0.472 0.703,-0.479 0.676,-0.479C0.643,-0.479 0.613,-0.469 0.585,-0.449C0.558,-0.43 0.538,-0.404 0.525,-0.371C0.513,-0.339 0.506,-0.284 0.506,-0.208L0.506,0L0.438,0L0.438,-0.272C0.438,-0.336 0.434,-0.38 0.426,-0.403C0.418,-0.426 0.404,-0.444 0.384,-0.458C0.364,-0.472 0.341,-0.479 0.313,-0.479C0.282,-0.479 0.252,-0.469 0.225,-0.45C0.197,-0.431 0.177,-0.405 0.164,-0.373C0.151,-0.341 0.144,-0.292 0.144,-0.225L0.144,0L0.076,0L0.076,-0.531Z" style="fill:rgb(67,114,167);fill-rule:nonzero;"/>
            </g>
            <g transform="matrix(46,0,0,46,251.53,113.871)">
                <path d="M0.523,-0.176L0.581,-0.146C0.562,-0.109 0.54,-0.079 0.516,-0.056C0.491,-0.033 0.463,-0.016 0.432,-0.004C0.401,0.008 0.366,0.014 0.327,0.014C0.24,0.014 0.172,-0.015 0.124,-0.072C0.075,-0.128 0.05,-0.193 0.05,-0.264C0.05,-0.332 0.071,-0.392 0.112,-0.444C0.165,-0.511 0.235,-0.545 0.323,-0.545C0.414,-0.545 0.486,-0.511 0.54,-0.442C0.578,-0.393 0.598,-0.333 0.599,-0.26L0.121,-0.26C0.122,-0.199 0.142,-0.148 0.18,-0.109C0.218,-0.069 0.265,-0.049 0.321,-0.049C0.348,-0.049 0.374,-0.054 0.4,-0.063C0.426,-0.073 0.447,-0.085 0.465,-0.101C0.483,-0.116 0.503,-0.142 0.523,-0.176ZM0.523,-0.319C0.514,-0.356 0.501,-0.385 0.484,-0.407C0.466,-0.429 0.443,-0.446 0.414,-0.459C0.386,-0.473 0.356,-0.479 0.324,-0.479C0.272,-0.479 0.227,-0.463 0.19,-0.429C0.162,-0.405 0.141,-0.368 0.127,-0.319L0.523,-0.319Z" style="fill:rgb(67,114,167);fill-rule:nonzero;"/>
            </g>
            <g transform="matrix(46,0,0,46,279.953,113.871)">
                <path d="M0.076,-0.531L0.145,-0.531L0.145,-0.436C0.172,-0.472 0.202,-0.5 0.235,-0.518C0.269,-0.536 0.305,-0.545 0.344,-0.545C0.383,-0.545 0.419,-0.535 0.449,-0.515C0.48,-0.494 0.503,-0.467 0.518,-0.433C0.532,-0.399 0.54,-0.346 0.54,-0.273L0.54,0L0.471,0L0.471,-0.253C0.471,-0.315 0.469,-0.355 0.464,-0.376C0.456,-0.411 0.44,-0.438 0.418,-0.455C0.396,-0.473 0.366,-0.482 0.33,-0.482C0.289,-0.482 0.252,-0.468 0.219,-0.441C0.186,-0.414 0.165,-0.38 0.154,-0.339C0.148,-0.313 0.145,-0.265 0.145,-0.195L0.145,0L0.076,0L0.076,-0.531Z" style="fill:rgb(67,114,167);fill-rule:nonzero;"/>
            </g>
            <g transform="matrix(46,0,0,46,306.535,113.871)">
                <path d="M0.136,-0.729L0.204,-0.729L0.204,-0.531L0.313,-0.531L0.313,-0.472L0.204,-0.472L0.204,0L0.136,0L0.136,-0.472L0.042,-0.472L0.042,-0.531L0.136,-0.531L0.136,-0.729Z" style="fill:rgb(67,114,167);fill-rule:nonzero;"/>
            </g>
            <g transform="matrix(46,0,0,46,320.651,113.871)">
                <path d="M0.605,-0.531L0.605,0L0.538,0L0.538,-0.091C0.509,-0.056 0.477,-0.03 0.442,-0.013C0.406,0.005 0.367,0.014 0.325,0.014C0.25,0.014 0.185,-0.014 0.132,-0.068C0.079,-0.123 0.052,-0.189 0.052,-0.267C0.052,-0.344 0.079,-0.409 0.133,-0.463C0.187,-0.518 0.251,-0.545 0.327,-0.545C0.37,-0.545 0.41,-0.536 0.445,-0.517C0.48,-0.499 0.511,-0.471 0.538,-0.434L0.538,-0.531L0.605,-0.531ZM0.332,-0.479C0.294,-0.479 0.259,-0.47 0.227,-0.451C0.195,-0.432 0.169,-0.406 0.15,-0.372C0.131,-0.338 0.122,-0.303 0.122,-0.265C0.122,-0.227 0.131,-0.192 0.15,-0.158C0.17,-0.123 0.195,-0.097 0.228,-0.078C0.26,-0.059 0.295,-0.049 0.332,-0.049C0.369,-0.049 0.405,-0.059 0.438,-0.078C0.472,-0.096 0.497,-0.122 0.515,-0.154C0.533,-0.186 0.542,-0.223 0.542,-0.263C0.542,-0.324 0.522,-0.376 0.482,-0.417C0.441,-0.458 0.391,-0.479 0.332,-0.479Z" style="fill:rgb(67,114,167);fill-rule:nonzero;"/>
            </g>
            <g transform="matrix(46,0,0,46,350.602,113.871)">
                <path d="M0.136,-0.729L0.204,-0.729L0.204,-0.531L0.313,-0.531L0.313,-0.472L0.204,-0.472L0.204,0L0.136,0L0.136,-0.472L0.042,-0.472L0.042,-0.531L0.136,-0.531L0.136,-0.729Z" style="fill:rgb(67,114,167);fill-rule:nonzero;"/>
            </g>
            <g transform="matrix(46,0,0,46,364.717,113.871)">
                <path d="M0.1,-0.75C0.115,-0.75 0.129,-0.744 0.14,-0.733C0.151,-0.722 0.156,-0.709 0.156,-0.693C0.156,-0.678 0.151,-0.665 0.14,-0.654C0.129,-0.643 0.115,-0.637 0.1,-0.637C0.085,-0.637 0.071,-0.643 0.06,-0.654C0.049,-0.665 0.044,-0.678 0.044,-0.693C0.044,-0.709 0.049,-0.722 0.06,-0.733C0.071,-0.744 0.085,-0.75 0.1,-0.75ZM0.066,-0.531L0.134,-0.531L0.134,0L0.066,0L0.066,-0.531Z" style="fill:rgb(67,114,167);fill-rule:nonzero;"/>
            </g>
            <g transform="matrix(46,0,0,46,372.454,113.871)">
                <path d="M0.328,-0.545C0.409,-0.545 0.477,-0.515 0.531,-0.456C0.58,-0.402 0.604,-0.338 0.604,-0.264C0.604,-0.19 0.579,-0.125 0.527,-0.07C0.475,-0.014 0.409,0.014 0.328,0.014C0.246,0.014 0.18,-0.014 0.128,-0.07C0.076,-0.125 0.05,-0.19 0.05,-0.264C0.05,-0.338 0.075,-0.402 0.124,-0.456C0.177,-0.515 0.245,-0.545 0.328,-0.545ZM0.327,-0.478C0.271,-0.478 0.222,-0.457 0.181,-0.415C0.14,-0.373 0.12,-0.322 0.12,-0.263C0.12,-0.224 0.129,-0.188 0.148,-0.155C0.166,-0.122 0.191,-0.096 0.223,-0.078C0.255,-0.06 0.289,-0.051 0.327,-0.051C0.365,-0.051 0.4,-0.06 0.432,-0.078C0.463,-0.096 0.489,-0.122 0.507,-0.155C0.526,-0.188 0.535,-0.224 0.535,-0.263C0.535,-0.322 0.515,-0.373 0.474,-0.415C0.433,-0.457 0.384,-0.478 0.327,-0.478Z" style="fill:rgb(67,114,167);fill-rule:nonzero;"/>
            </g>
            <g transform="matrix(46,0,0,46,401.103,113.871)">
                <path d="M0.076,-0.531L0.145,-0.531L0.145,-0.436C0.172,-0.472 0.202,-0.5 0.235,-0.518C0.269,-0.536 0.305,-0.545 0.344,-0.545C0.383,-0.545 0.419,-0.535 0.449,-0.515C0.48,-0.494 0.503,-0.467 0.518,-0.433C0.532,-0.399 0.54,-0.346 0.54,-0.273L0.54,0L0.471,0L0.471,-0.253C0.471,-0.315 0.469,-0.355 0.464,-0.376C0.456,-0.411 0.44,-0.438 0.418,-0.455C0.396,-0.473 0.366,-0.482 0.33,-0.482C0.289,-0.482 0.252,-0.468 0.219,-0.441C0.186,-0.414 0.165,-0.38 0.154,-0.339C0.148,-0.313 0.145,-0.265 0.145,-0.195L0.145,0L0.076,0L0.076,-0.531Z" style="fill:rgb(67,114,167);fill-rule:nonzero;"/>
            </g>
            <g transform="matrix(46,0,0,46,92,155.871)">
                <path d="M0.742,-0.592L0.647,-0.501C0.582,-0.57 0.508,-0.604 0.427,-0.604C0.358,-0.604 0.301,-0.581 0.254,-0.534C0.207,-0.487 0.183,-0.429 0.183,-0.36C0.183,-0.312 0.194,-0.27 0.214,-0.233C0.235,-0.195 0.265,-0.166 0.303,-0.145C0.341,-0.124 0.383,-0.113 0.429,-0.113C0.469,-0.113 0.505,-0.121 0.538,-0.136C0.571,-0.15 0.607,-0.177 0.647,-0.216L0.739,-0.12C0.686,-0.068 0.636,-0.032 0.589,-0.012C0.542,0.008 0.488,0.018 0.427,0.018C0.316,0.018 0.224,-0.017 0.153,-0.088C0.082,-0.159 0.046,-0.25 0.046,-0.36C0.046,-0.432 0.063,-0.496 0.095,-0.551C0.127,-0.607 0.174,-0.652 0.234,-0.686C0.295,-0.719 0.36,-0.736 0.429,-0.736C0.488,-0.736 0.545,-0.724 0.6,-0.699C0.655,-0.674 0.702,-0.638 0.742,-0.592Z" style="fill:rgb(67,114,167);fill-rule:nonzero;"/>
            </g>
            <g transform="matrix(46,0,0,46,126.398,155.871)">
                <path d="M0.605,-0.531L0.605,0L0.538,0L0.538,-0.091C0.509,-0.056 0.477,-0.03 0.442,-0.013C0.406,0.005 0.367,0.014 0.325,0.014C0.25,0.014 0.185,-0.014 0.132,-0.068C0.079,-0.123 0.052,-0.189 0.052,-0.267C0.052,-0.344 0.079,-0.409 0.133,-0.463C0.187,-0.518 0.251,-0.545 0.327,-0.545C0.37,-0.545 0.41,-0.536 0.445,-0.517C0.48,-0.499 0.511,-0.471 0.538,-0.434L0.538,-0.531L0.605,-0.531ZM0.332,-0.479C0.294,-0.479 0.259,-0.47 0.227,-0.451C0.195,-0.432 0.169,-0.406 0.15,-0.372C0.131,-0.338 0.122,-0.303 0.122,-0.265C0.122,-0.227 0.131,-0.192 0.15,-0.158C0.17,-0.123 0.195,-0.097 0.228,-0.078C0.26,-0.059 0.295,-0.049 0.332,-0.049C0.369,-0.049 0.405,-0.059 0.438,-0.078C0.472,-0.096 0.497,-0.122 0.515,-0.154C0.533,-0.186 0.542,-0.223 0.542,-0.263C0.542,-0.324 0.522,-0.376 0.482,-0.417C0.441,-0.458 0.391,-0.479 0.332,-0.479Z" style="fill:rgb(67,114,167);fill-rule:nonzero;"/>
            </g>
            <g transform="matrix(46,0,0,46,156.349,155.871)">
                <path d="M0.076,-0.531L0.144,-0.531L0.144,-0.439C0.168,-0.473 0.192,-0.498 0.217,-0.514C0.252,-0.535 0.288,-0.545 0.326,-0.545C0.352,-0.545 0.377,-0.54 0.4,-0.53C0.423,-0.52 0.442,-0.506 0.456,-0.49C0.471,-0.473 0.484,-0.449 0.495,-0.417C0.517,-0.459 0.546,-0.491 0.58,-0.512C0.614,-0.534 0.651,-0.545 0.69,-0.545C0.727,-0.545 0.759,-0.536 0.787,-0.517C0.815,-0.499 0.836,-0.473 0.85,-0.439C0.863,-0.406 0.87,-0.356 0.87,-0.29L0.87,0L0.8,0L0.8,-0.29C0.8,-0.347 0.796,-0.386 0.788,-0.407C0.78,-0.429 0.766,-0.446 0.747,-0.459C0.727,-0.472 0.703,-0.479 0.676,-0.479C0.643,-0.479 0.613,-0.469 0.585,-0.449C0.558,-0.43 0.538,-0.404 0.525,-0.371C0.513,-0.339 0.506,-0.284 0.506,-0.208L0.506,0L0.438,0L0.438,-0.272C0.438,-0.336 0.434,-0.38 0.426,-0.403C0.418,-0.426 0.404,-0.444 0.384,-0.458C0.364,-0.472 0.341,-0.479 0.313,-0.479C0.282,-0.479 0.252,-0.469 0.225,-0.45C0.197,-0.431 0.177,-0.405 0.164,-0.373C0.151,-0.341 0.144,-0.292 0.144,-0.225L0.144,0L0.076,0L0.076,-0.531Z" style="fill:rgb(67,114,167);fill-rule:nonzero;"/>
            </g>
            <g transform="matrix(46,0,0,46,198.024,155.871)">
                <path d="M0.077,-0.531L0.146,-0.531L0.146,-0.434C0.173,-0.471 0.204,-0.499 0.239,-0.517C0.274,-0.536 0.313,-0.545 0.356,-0.545C0.432,-0.545 0.496,-0.518 0.55,-0.463C0.604,-0.409 0.63,-0.344 0.63,-0.267C0.63,-0.189 0.604,-0.123 0.551,-0.068C0.497,-0.014 0.433,0.014 0.358,0.014C0.316,0.014 0.277,0.005 0.242,-0.013C0.206,-0.03 0.174,-0.056 0.146,-0.091L0.146,0.194L0.077,0.194L0.077,-0.531ZM0.351,-0.479C0.291,-0.479 0.242,-0.458 0.201,-0.417C0.161,-0.376 0.141,-0.324 0.141,-0.263C0.141,-0.223 0.15,-0.186 0.168,-0.154C0.186,-0.122 0.212,-0.096 0.245,-0.078C0.279,-0.059 0.314,-0.049 0.352,-0.049C0.388,-0.049 0.423,-0.059 0.455,-0.078C0.487,-0.097 0.513,-0.123 0.532,-0.158C0.551,-0.192 0.561,-0.227 0.561,-0.265C0.561,-0.303 0.552,-0.338 0.533,-0.372C0.514,-0.406 0.488,-0.432 0.456,-0.451C0.424,-0.47 0.389,-0.479 0.351,-0.479Z" style="fill:rgb(67,114,167);fill-rule:nonzero;"/>
            </g>
        </g>
    </g>
</svg>
