<svg id="Ebene_1" data-name="Ebene 1" xmlns="http://www.w3.org/2000/svg" viewBox="0 0 339.81 130.61"><defs><style>.cls-1{stroke:#000;stroke-width:2.1px;}.cls-2{fill:#fff;stroke:#fff;stroke-width:2.8px;}.cls-3{fill:#4eb857;}.cls-4{fill:#ccdc29;}</style></defs><title>cosee-TechTalks-logo-komplett-farbig</title><path class="cls-1" d="M407.23,334.83a10,10,0,0,1,19.72,0H407.23Zm20.29,8.25A12.45,12.45,0,0,1,418,347.9c-5.79,0-9.91-3.73-10.72-8.83h25.56c0-10.55-6.42-17.59-15.65-17.59s-15.42,7.11-15.42,15.59c0,8,5.67,15.65,16.28,15.65,5.21,0,9.46-2,13.47-6.48Zm-67.86-8.25a10,10,0,0,1,19.72,0H359.66ZM380,343.08a12.45,12.45,0,0,1-9.57,4.81c-5.79,0-9.92-3.73-10.72-8.83h25.56c0-10.55-6.42-17.59-15.65-17.59s-15.42,7.11-15.42,15.59c0,8,5.67,15.65,16.28,15.65,5.21,0,9.45-2,13.47-6.48Zm-68.47.23c0.21,5.67,5.27,9.4,13.95,9.4,6.83,0,13.45-3.21,13.45-9.28,0-3.84-1.92-6.42-7.76-7.79l-8.68-2c-3-.69-4.13-1.95-4.13-3.61,0-2.35,2.63-4.3,6.69-4.3,4.27,0,6.41,1.66,6.9,5h6c0-4.47-3.27-9.28-12.74-9.28-8.61,0-13.24,4.13-13.24,9.05,0,3.55,2.06,6.48,7.54,7.68l6.48,1.43c5,1.09,6.55,2.29,6.55,4.24,0,1.78-1.57,4.3-7.33,4.3-3.91,0-7.26-1.66-7.69-4.87h-6Z" transform="translate(-94.03 -296.27)"/><path d="M227.8,296.27a40.81,40.81,0,0,0-30.88,67.5L187.81,389l21.3-15.62A40.82,40.82,0,1,0,227.8,296.27Z" transform="translate(-94.03 -296.27)"/><path class="cls-2" d="M229.73,336.77A12.28,12.28,0,1,1,242,349.19,12.29,12.29,0,0,1,229.73,336.77Zm-4.15,0A16.43,16.43,0,1,0,242,320.65,16.07,16.07,0,0,0,225.58,336.77Z" transform="translate(-94.03 -296.27)"/><path class="cls-2" d="M224.22,325.28a16.26,16.26,0,0,0-10.64-4,16.12,16.12,0,1,0,0,32.23,16.48,16.48,0,0,0,10.76-4.19l-2.49-2.84a11.59,11.59,0,0,1-8.28,3.33,12.42,12.42,0,0,1,0-24.84,11.85,11.85,0,0,1,8,3.21Z" transform="translate(-94.03 -296.27)"/><path class="cls-3" d="M284.51,336.95a41.21,41.21,0,0,0-32.57-40.29,45.57,45.57,0,0,1-1.55,80.87,41.2,41.2,0,0,0,34.12-40.58" transform="translate(-94.03 -296.27)"/><path class="cls-4" d="M300.1,336.95a41.21,41.21,0,0,0-32.57-40.29A45.57,45.57,0,0,1,266,377.53a41.2,41.2,0,0,0,34.12-40.58" transform="translate(-94.03 -296.27)"/><path d="M94,404.94l5.9-.49,0.35,4.18-5.9.49Zm8.58,22-1.89-22.51,5.1-.43,1.89,22.51ZM107,408.06l-0.35-4.18,5.93-.5,0.35,4.18Z" transform="translate(-94.03 -296.27)"/><path d="M129.3,419.58a9,9,0,0,1-1.28,2.77,8.74,8.74,0,0,1-6.55,3.44c-5.87.49-9.18-3.44-9.59-8.31-0.45-5.36,2.83-9.52,8.12-10a7.71,7.71,0,0,1,6.66,2.49c1.7,1.88,2.41,4.65,2.64,7.39l-11.29.95a9.56,9.56,0,0,1-.34-1.77,7.93,7.93,0,0,1,0-2l6.12-.51a4.42,4.42,0,0,0-.85-1.73,3.27,3.27,0,0,0-2.72-1c-1.82.15-3.76,1.47-3.43,5.39,0.21,2.46,1.34,5.28,4.44,5a3.27,3.27,0,0,0,3-2.15Z" transform="translate(-94.03 -296.27)"/><path d="M140.12,424.23c-6.2.33-8.63-4.16-9-8.37-0.54-6.5,3.54-9.45,7.45-9.9l0.33,4c-2.77.68-2.84,3.67-2.7,5.36a6.28,6.28,0,0,0,1.27,3.62,3.3,3.3,0,0,0,2.28,1.09Zm2.57-11.84a3,3,0,0,0-2.94-2.51l-0.34-4a7.79,7.79,0,0,1,5.36,1.45,7.26,7.26,0,0,1,2.71,4.43Zm-2.1,7.56c1.79-.44,2.35-1.45,2.56-3.17l4.87-.18c-0.15,3.19-1.93,6.84-7.08,7.53Z" transform="translate(-94.03 -296.27)"/><path d="M150.51,422.87l-1.89-22.54,4.91-.41,1.89,22.54Zm4.35-16.71a7,7,0,0,1,4.11-1.89,6,6,0,0,1,3.6.79c2.27,1.38,2.51,3.84,2.66,5.27l0.94,11.22-4.91.41-0.82-9.82c-0.08-1.34-.25-3.74-2.86-3.52a3.45,3.45,0,0,0-2.39,1.32Z" transform="translate(-94.03 -296.27)"/><path class="cls-3" d="M166.1,398.9l5.9-.49,0.35,4.18-5.9.49Zm8.58,22-1.89-22.51,5.1-.43,1.89,22.51ZM179.08,402l-0.35-4.18,5.93-.5,0.35,4.18Z" transform="translate(-94.03 -296.27)"/><path class="cls-3" d="M194.34,411.33c-0.44.17-2.57,0.76-3.07,0.93-1.34.5-2,1.1-1.94,2.19s1,1.78,2.45,1.66a5,5,0,0,0,2.85-1.2,15.06,15.06,0,0,0,0,1.67c0,0.29.24,1.65,0.26,1.94a7.18,7.18,0,0,1-4.14,1.57c-3.25.27-6.13-1.51-6.43-5-0.34-4.08,3-5.2,4.6-5.68,0.69-.22,4.27-1.13,5.09-1.39Zm-9.57-3.11c-0.08-4,2.4-6.24,6.89-6.61a9,9,0,0,1,5.41.9c2.26,1.32,2.5,3.42,2.73,5.33l0.62,7.43a5.9,5.9,0,0,0,.92,3.33l-5.23.44a5.87,5.87,0,0,1-.6-2.52l-0.74-8.8c0-.93-0.14-2.49-2.79-2.27-0.54,0-2.8.3-2.69,2.41Z" transform="translate(-94.03 -296.27)"/><path class="cls-3" d="M204.4,418.36l-1.89-22.51,4.91-.41,1.89,22.51Z" transform="translate(-94.03 -296.27)"/><path class="cls-3" d="M213,417.64l-1.89-22.51,4.94-.41,1.89,22.51Zm4.8-12.83,4-5.31,6.38-.53-6.73,7.82,8.69,9.42-6.28.53-5.57-6.34Z" transform="translate(-94.03 -296.27)"/><path class="cls-3" d="M235.62,408.42c-2-.38-5-0.93-5.3-4.63a5,5,0,0,1,1-3.61c1.54-1.93,4-2.26,5.41-2.48l0.3,3.6c-1,.15-2.11.53-2,1.61,0.07,0.86.73,1,2.26,1.29l2.6,0.36c2.24,0.33,6,.81,6.36,5a5.18,5.18,0,0,1-2.84,5.18,10.51,10.51,0,0,1-4.24,1.19l-0.3-3.63c0.67-.09,2.54-0.41,2.41-1.87-0.09-1.05-1.2-1.28-2.34-1.47Zm2.66,7.58c-5.3,0-7.4-2.08-8-5.75l4.71-.55c0.38,1.48.78,2.37,2.95,2.61Zm2.26-12.46a2.49,2.49,0,0,0-2.63-2.28l-0.3-3.63a8.16,8.16,0,0,1,5.45,1.44,5.87,5.87,0,0,1,2.12,3.84Z" transform="translate(-94.03 -296.27)"/></svg>