<svg id="Capa_1" enable-background="new 0 0 512 512" height="512" viewBox="0 0 512 512" width="512" xmlns="http://www.w3.org/2000/svg"><g><g><path d="m421.668 173.166v-66.266c0-54.897-44.503-99.4-99.4-99.4h-56.13l-21.137 74.55v91.116z" fill="#e0343f"/><path d="m322.267 7.5h-23c54.897 0 99.4 44.503 99.4 99.4v66.266h23v-66.266c0-54.897-44.502-99.4-99.4-99.4z" fill="#b53a4c"/><circle cx="405.099" cy="198.017" fill="#f6fafd" r="33.133"/><path d="m405.099 164.883c-4.044 0-7.917.727-11.5 2.053 12.63 4.675 21.634 16.825 21.634 31.08s-9.004 26.406-21.634 31.08c3.583 1.326 7.456 2.053 11.5 2.053 18.299 0 33.133-14.834 33.133-33.133 0-18.298-14.834-33.133-33.133-33.133z" fill="#ccf"/><path d="m388.532 164.883c9.15 0 16.567 7.417 16.567 16.567v16.567c0 9.15-7.417 16.567-16.567 16.567h-265.065c-9.15 0-16.567-7.417-16.567-16.567v-16.567c0-9.149 7.417-16.567 16.567-16.567z" fill="#ffab9e"/><path d="m86.272 371.966c-18.19 22.69-29.07 51.491-29.07 82.834v33.133c0 9.15 7.417 16.567 16.567 16.567h149.099l33.131-6.333 33.135 6.333h149.096c9.15 0 16.567-7.417 16.567-16.567v-33.133c0-31.361-10.893-60.179-29.102-82.874z" fill="#e0343f"/><path d="m222.867 449h66.267v55.5h-66.267z" fill="#f6fafd"/><path d="m425.695 371.926-22.998.003c18.208 22.695 29.1 51.511 29.1 82.871v33.133c0 9.15-7.417 16.567-16.567 16.567h23c9.149 0 16.567-7.417 16.567-16.567v-33.133c0-31.361-10.893-60.179-29.102-82.874z" fill="#b53a4c"/><path d="m266.134 449h23v55.5h-23z" fill="#ccf"/><path d="m371.966 252.979v-97.312h-231.93v97.312c0 1.968-1.433 3.637-3.377 3.942-35.633 5.598-62.891 36.424-62.891 73.63 0 34.832 23.895 64.064 56.183 72.247 1.053.267 1.801 1.198 1.801 2.284v.019c0 18.299 14.834 33.133 33.133 33.133 5.052 0 9.837-1.133 14.12-3.157 3.586-1.694 7.882-.705 10.232 2.49 15.078 20.497 39.367 33.8 66.765 33.8s51.686-13.303 66.764-33.8c2.35-3.195 6.646-4.184 10.232-2.49 4.283 2.024 9.068 3.157 14.12 3.157 18.299 0 33.133-14.834 33.133-33.133v-.019c0-1.086.748-2.017 1.801-2.284 32.287-8.184 56.183-37.415 56.183-72.247 0-37.205-27.258-68.032-62.891-73.629-1.944-.306-3.378-1.976-3.378-3.943z" fill="#f6fafd"/><g><g><g><path d="m309.997 435.076c-3.586-1.694-7.882-.705-10.232 2.49-12.93 17.577-32.636 29.855-55.264 32.999 3.759.522 7.597.801 11.5.801 27.12 0 51.188-13.039 66.297-33.184-4.381-.237-8.535-1.327-12.301-3.106z" fill="#ccf"/></g><g><path d="m375.343 256.921c-1.944-.305-3.377-1.975-3.377-3.942v-97.312h-231.93 208.93v97.312c0 1.968 1.434 3.637 3.377 3.942 35.633 5.598 62.891 36.424 62.891 73.629 0 34.832-23.896 64.064-56.183 72.247-1.053.267-1.801 1.198-1.801 2.284v.019c0 14.248-8.995 26.393-21.615 31.073 3.578 1.325 7.442 2.06 11.482 2.06 18.299 0 33.133-14.834 33.133-33.133v-.019c0-1.086.748-2.017 1.801-2.284 32.287-8.184 56.183-37.415 56.183-72.247 0-37.205-27.258-68.032-62.891-73.629z" fill="#ccf"/></g></g></g><path d="m173.168 155.667.001 50.636c0 17.786 5.606 34.263 15.147 47.76l135.367.005c9.543-13.498 15.15-29.977 15.15-47.765v-50.636z" fill="#ffc7b5"/><path d="m231.149 239.468c-18.895.565-37.618 8.051-52.041 22.473-20.126 20.126-26.744 48.626-19.898 74.281 25.655 6.846 54.155.228 74.281-19.898 6.808-6.808 12.054-14.579 15.768-22.87 1.183-2.641 3.847-4.304 6.741-4.304 2.893 0 5.558 1.663 6.741 4.304 3.714 8.291 8.96 16.062 15.768 22.87 20.126 20.126 48.627 26.744 74.281 19.898 6.846-25.655.228-54.155-19.898-74.281-14.423-14.423-33.147-21.909-52.043-22.474z" fill="#e1e1ff"/><path d="m264.283 222.866c-3.021 0-13.546 0-16.567 0-9.15 0-16.567 7.417-16.567 16.567s7.417 16.567 16.567 16.567h16.567c9.15 0 16.567-7.417 16.567-16.567 0-9.149-7.417-16.567-16.567-16.567z" fill="#ffab9e"/><g><g><g><path d="m140.034 156.6v-49.7c0-54.897 44.503-99.4 99.4-99.4h26.703v149.1z" fill="#e0343f"/></g></g></g><g><path d="m380.532 115.183c4.418 0 8 3.582 8 8v25.7c0 8.837-7.163 16-16 16h-233.065c-8.837 0-16-7.163-16-16v-25.7c0-4.418 3.582-8 8-8z" fill="#f6fafd"/><path d="m380.532 115.183h-23.283c4.575 0 8.283 3.708 8.283 8.283v24.85c0 9.15-7.417 16.567-16.567 16.567h23.566c8.837 0 16-7.163 16-16v-25.7c.001-4.418-3.581-8-7.999-8z" fill="#ccf"/></g></g><g fill="#0c0a0b"><path d="m434.82 371.49c6.983-12.137 10.914-26.159 10.914-40.939 0-39.844-28.553-73.131-66.269-80.511v-20.543c7.151 5.808 16.177 9.154 25.635 9.154 22.405 0 40.634-18.228 40.634-40.633 0-13.404-6.527-25.308-16.566-32.713v-58.405c0-58.945-47.955-106.9-106.9-106.9h-82.833c-18.741 0-37.182 4.921-53.33 14.233-3.588 2.069-4.82 6.655-2.751 10.244s6.656 4.82 10.244 2.75c13.872-7.999 29.722-12.227 45.836-12.227h82.833c50.674 0 91.9 41.226 91.9 91.9v51.516c-2.918-.668-5.95-1.033-9.067-1.033-3.177 0-6.322.371-9.385 1.096-.508-.159-1.025-.297-1.547-.422 1.2-2.82 1.865-5.92 1.865-9.173v-25.7c0-8.547-6.953-15.5-15.5-15.5h-1.066v-.784c0-40.675-33.092-73.767-73.767-73.767-4.143 0-7.5 3.358-7.5 7.5s3.357 7.5 7.5 7.5c32.404 0 58.767 26.363 58.767 58.767v.783h-216.933v-.783c0-23.126 8.62-45.225 24.271-62.227 2.806-3.047 2.609-7.792-.438-10.597-3.046-2.806-7.79-2.61-10.597.438-18.208 19.778-28.236 45.485-28.236 72.386v.783h-1.066c-8.547 0-15.5 6.953-15.5 15.5v25.7c0 3.253.665 6.353 1.865 9.173-10.56 2.544-18.432 12.064-18.432 23.394v16.566c0 13.27 10.796 24.067 24.067 24.067h9.068v27.955c-37.715 7.38-66.268 40.667-66.268 80.511 0 14.78 3.931 28.802 10.913 40.939-17.752 23.982-27.478 53.356-27.478 83.311v33.133c0 13.271 10.796 24.067 24.066 24.067h53.471c4.142 0 7.5-3.358 7.5-7.5s-3.358-7.5-7.5-7.5h-53.471c-4.999 0-9.066-4.067-9.066-9.067v-33.132c0-25.5 7.478-49.635 21.687-70.384 9.889 11.371 22.938 20.055 38.052 24.633 1.992 20.56 19.37 36.685 40.443 36.685 6.053 0 11.882-1.304 17.324-3.876.324-.153.765-.149.986.153 8.518 11.579 19.616 20.816 32.173 27.147v27.842h-58.128c-4.142 0-7.5 3.358-7.5 7.5s3.358 7.5 7.5 7.5h280.99c13.27 0 24.067-10.796 24.067-24.067v-33.133c.001-29.955-9.725-59.327-27.477-83.31zm-42.034-198.042c2.86 1.527 4.813 4.54 4.813 8.002v16.566c0 4.999-4.067 9.067-9.066 9.067h-9.066v-34.7h9.066c1.096 0 2.143.206 3.117.564.363.199.743.364 1.136.501zm12.314 50.202c-3.708 0-7.309-.824-10.592-2.318 10.389-2.664 18.09-12.107 18.09-23.315v-16.567c0-2.935-.53-5.748-1.496-8.35 11.248 2.71 19.632 12.849 19.632 24.917 0 14.134-11.499 25.633-25.634 25.633zm-274.133-100.467c0-.276.224-.5.5-.5h249.066c.275 0 .5.224.5.5v25.7c0 4.687-3.814 8.5-8.5 8.5h-233.066c-4.687 0-8.5-3.813-8.5-8.5zm53.445 144.062c11.039-11.038 25.275-17.935 40.615-19.796 3.31 9.341 12.229 16.052 22.689 16.052h16.567c10.461 0 19.38-6.711 22.69-16.052 15.341 1.861 29.578 8.758 40.616 19.797 16.408 16.408 23.472 40.097 18.959 62.735-22.645 4.513-46.327-2.55-62.734-18.958-5.992-5.993-10.779-12.935-14.227-20.633-2.377-5.308-7.71-8.738-13.585-8.738-5.876 0-11.209 3.43-13.585 8.738-3.449 7.699-8.235 14.641-14.227 20.633-16.408 16.408-40.096 23.47-62.735 18.958-4.514-22.639 2.549-46.328 18.957-62.736zm54.237-27.812c0-5 4.067-9.067 9.067-9.067h16.567c5 0 9.067 4.067 9.067 9.067s-4.067 9.067-9.067 9.067h-16.567c-5 .001-9.067-4.067-9.067-9.067zm82.781 4.213c-10.378-6.138-21.982-9.98-34.128-11.237-3.013-9.854-12.191-17.043-23.019-17.043h-16.567c-10.828 0-20.006 7.189-23.019 17.043-12.145 1.257-23.747 5.098-34.125 11.236-6.49-11.332-9.904-24.102-9.904-37.342l-.001-33.92h150.666l-.001 33.92c.002 13.241-3.411 26.011-9.902 37.343zm-197.963-36.563c-5 0-9.067-4.067-9.067-9.067v-16.566c0-4.999 4.067-9.067 9.067-9.067h9.068v34.7zm71.811 226.039c-4.438-6.033-12.629-8.063-19.478-4.826-3.423 1.618-7.096 2.438-10.915 2.438-14.134 0-25.633-11.499-25.633-25.645.004-4.517-3.05-8.446-7.427-9.553-29.767-7.529-50.557-34.252-50.557-64.985 0-36.971 30.079-67.05 67.05-67.05 4.142 0 7.5-3.358 7.5-7.5s-3.358-7.5-7.5-7.5c-.262 0-.52.017-.782.02v-76.137h18.133l.001 33.92c0 16.408 4.36 32.224 12.665 46.154-1.549 1.34-3.069 2.721-4.529 4.181-21.226 21.226-29.595 52.462-21.841 81.518.692 2.594 2.719 4.621 5.313 5.313 29.058 7.753 60.292-.616 81.518-21.841 7.228-7.228 13.015-15.595 17.206-24.875 4.189 9.279 9.977 17.647 17.205 24.876 15.993 15.992 37.663 24.686 59.807 24.685 7.247 0 14.548-.932 21.712-2.844 2.595-.692 4.621-2.719 5.313-5.313 7.754-29.057-.615-60.292-21.841-81.518-1.46-1.46-2.979-2.841-4.528-4.18 8.305-13.929 12.665-29.746 12.665-46.155l.001-33.92h18.131v76.137c-.261-.002-.519-.02-.781-.02-4.143 0-7.5 3.358-7.5 7.5s3.357 7.5 7.5 7.5c36.972 0 67.05 30.079 67.05 67.05 0 13.471-3.996 26.171-10.99 36.823-.162.211-.311.429-.448.654-8.973 13.32-22.671 23.348-39.12 27.508-4.376 1.107-7.43 5.036-7.426 9.565 0 14.134-11.499 25.633-25.634 25.633-3.819 0-7.491-.82-10.915-2.439-6.851-3.236-15.043-1.205-19.478 4.827-14.162 19.251-36.862 30.745-60.724 30.745-23.861-.001-46.561-11.495-60.723-30.746zm35.089 41.992c8.245 2.455 16.873 3.752 25.633 3.752 8.761 0 17.389-1.297 25.634-3.752v21.886h-51.267zm216.931 12.819c0 4.999-4.067 9.067-9.067 9.067h-141.596v-27.842c12.557-6.331 23.655-15.568 32.173-27.148.223-.301.667-.304.985-.153 5.442 2.572 11.271 3.876 17.324 3.876 21.066 0 38.44-16.114 40.441-36.685 15.114-4.578 28.163-13.261 38.052-24.633 14.209 20.748 21.687 44.884 21.687 70.384v33.134z"/><path d="m222.868 190.517c-4.142 0-7.5 3.358-7.5 7.5v8.283c0 4.142 3.358 7.5 7.5 7.5s7.5-3.358 7.5-7.5v-8.283c0-4.143-3.358-7.5-7.5-7.5z"/><path d="m289.134 190.517c-4.143 0-7.5 3.358-7.5 7.5v8.283c0 4.142 3.357 7.5 7.5 7.5s7.5-3.358 7.5-7.5v-8.283c.001-4.143-3.357-7.5-7.5-7.5z"/><path d="m291.19 375.727c2.075-3.585.851-8.173-2.734-10.248-3.585-2.072-8.173-.85-10.248 2.735-4.576 7.907-13.085 12.819-22.207 12.819-9.123 0-17.633-4.913-22.208-12.821-2.074-3.585-6.662-4.81-10.248-2.736-3.585 2.074-4.81 6.662-2.736 10.248 7.247 12.527 20.732 20.31 35.191 20.31 14.459-.001 27.943-7.782 35.19-20.307z"/></g></g></svg>